<?xml version="1.0" standalone="no"?>
<!DOCTYPE svg PUBLIC "-//W3C//DTD SVG 20010904//EN"
 "http://www.w3.org/TR/2001/REC-SVG-20010904/DTD/svg10.dtd">
<svg version="1.0" xmlns="http://www.w3.org/2000/svg"
 width="233.000000pt" height="226.000000pt" viewBox="0 0 233.000000 226.000000"
 preserveAspectRatio="xMidYMid meet">

<g transform="translate(0.000000,226.000000) scale(0.100000,-0.100000)"
fill="#000000" stroke="none">
<path d="M2162 2148 c-26 -57 -160 -347 -297 -645 l-250 -543 -627 0 c-663 0
-691 -2 -783 -47 -84 -42 -131 -88 -167 -161 -30 -61 -33 -74 -32 -157 1 -106
25 -179 79 -242 40 -48 113 -96 170 -113 22 -6 46 -13 53 -15 9 -3 7 -13 -8
-37 -51 -84 5 -178 106 -178 28 0 44 8 70 34 29 29 34 41 34 79 0 30 -7 53
-21 71 l-20 26 436 0 436 0 -20 -26 c-14 -18 -21 -41 -21 -71 0 -38 5 -50 34
-79 97 -97 248 26 176 143 l-20 33 130 0 130 0 0 65 0 65 -715 0 c-778 0 -746
-2 -822 56 -18 14 -43 44 -54 67 -26 50 -36 151 -20 200 17 51 83 113 147 137
53 19 74 20 732 20 l677 0 307 668 c169 367 310 675 314 684 4 13 -6 23 -45
42 -28 14 -53 26 -56 26 -3 0 -27 -46 -53 -102z"/>
</g>
</svg>
